<mxfile host="Electron" modified="2023-10-08T21:04:03.802Z" agent="Mozilla/5.0 (X11; Linux x86_64) AppleWebKit/537.36 (KHTML, like Gecko) draw.io/21.6.8 Chrome/114.0.5735.289 Electron/25.5.0 Safari/537.36" etag="iHnnni1ByPV0kOmaj0iw" version="21.6.8" type="device">
  <diagram name="Page-1" id="74e2e168-ea6b-b213-b513-2b3c1d86103e">
    <mxGraphModel dx="1434" dy="839" grid="1" gridSize="10" guides="1" tooltips="1" connect="1" arrows="1" fold="1" page="1" pageScale="1" pageWidth="1100" pageHeight="850" background="#ffffff" math="0" shadow="0">
      <root>
        <mxCell id="0" />
        <mxCell id="1" parent="0" />
        <mxCell id="77e6c97f196da883-1" value="Workflow" style="swimlane;html=1;childLayout=stackLayout;startSize=30;rounded=0;shadow=0;labelBackgroundColor=none;strokeWidth=1;fontFamily=Helvetica;fontSize=18;align=center;" parent="1" vertex="1">
          <mxGeometry x="70" y="40" width="975" height="1200" as="geometry" />
        </mxCell>
        <mxCell id="77e6c97f196da883-2" value="vx.y.z" style="swimlane;html=1;startSize=30;fillColor=#d5e8d4;strokeColor=#82b366;fontSize=17;" parent="77e6c97f196da883-1" vertex="1">
          <mxGeometry y="30" width="160" height="1170" as="geometry" />
        </mxCell>
        <mxCell id="XAwka69sQL22n_eEZ8dz-53" value="" style="rounded=0;whiteSpace=wrap;html=1;fontFamily=Helvetica;fillColor=#d5e8d4;strokeColor=#82b366;" parent="77e6c97f196da883-2" vertex="1">
          <mxGeometry x="20" y="580" width="120" height="40" as="geometry" />
        </mxCell>
        <mxCell id="XAwka69sQL22n_eEZ8dz-54" value="release x.y.0" style="rounded=0;whiteSpace=wrap;html=1;fontFamily=Helvetica;fillColor=#d5e8d4;strokeColor=#82b366;" parent="77e6c97f196da883-2" vertex="1">
          <mxGeometry x="20" y="820" width="120" height="40" as="geometry" />
        </mxCell>
        <mxCell id="XAwka69sQL22n_eEZ8dz-52" style="edgeStyle=orthogonalEdgeStyle;rounded=1;orthogonalLoop=1;jettySize=auto;html=1;entryX=0.5;entryY=0;entryDx=0;entryDy=0;fontFamily=Helvetica;" parent="77e6c97f196da883-2" source="XAwka69sQL22n_eEZ8dz-53" target="XAwka69sQL22n_eEZ8dz-54" edge="1">
          <mxGeometry relative="1" as="geometry" />
        </mxCell>
        <mxCell id="XAwka69sQL22n_eEZ8dz-57" value="release x.y.1" style="rounded=0;whiteSpace=wrap;html=1;fontFamily=Helvetica;fillColor=#d5e8d4;strokeColor=#82b366;" parent="77e6c97f196da883-2" vertex="1">
          <mxGeometry x="20" y="1060" width="120" height="40" as="geometry" />
        </mxCell>
        <mxCell id="XAwka69sQL22n_eEZ8dz-112" style="edgeStyle=orthogonalEdgeStyle;rounded=1;orthogonalLoop=1;jettySize=auto;html=1;fontFamily=Helvetica;fontSize=14;entryX=0.5;entryY=0;entryDx=0;entryDy=0;" parent="77e6c97f196da883-2" source="XAwka69sQL22n_eEZ8dz-54" target="XAwka69sQL22n_eEZ8dz-57" edge="1">
          <mxGeometry relative="1" as="geometry">
            <mxPoint x="80" y="1100" as="targetPoint" />
          </mxGeometry>
        </mxCell>
        <mxCell id="77e6c97f196da883-3" value="tag-x-y-z" style="swimlane;html=1;startSize=30;fillColor=#dae8fc;strokeColor=#6c8ebf;fontSize=17;" parent="77e6c97f196da883-1" vertex="1">
          <mxGeometry x="160" y="30" width="160" height="1170" as="geometry" />
        </mxCell>
        <mxCell id="XAwka69sQL22n_eEZ8dz-61" value="tag x.y.1" style="rounded=0;whiteSpace=wrap;html=1;fontFamily=Helvetica;fillColor=#dae8fc;strokeColor=#6c8ebf;fontSize=14;" parent="77e6c97f196da883-3" vertex="1">
          <mxGeometry x="10" y="940" width="120" height="40" as="geometry" />
        </mxCell>
        <mxCell id="XAwka69sQL22n_eEZ8dz-101" style="edgeStyle=orthogonalEdgeStyle;rounded=1;orthogonalLoop=1;jettySize=auto;html=1;fontSize=14;" parent="77e6c97f196da883-3" source="XAwka69sQL22n_eEZ8dz-57" edge="1">
          <mxGeometry relative="1" as="geometry">
            <mxPoint x="-80" y="1140" as="targetPoint" />
          </mxGeometry>
        </mxCell>
        <mxCell id="XAwka69sQL22n_eEZ8dz-103" value="develop" style="swimlane;html=1;startSize=30;fillColor=#fff2cc;strokeColor=#d6b656;fontSize=17;" parent="77e6c97f196da883-1" vertex="1">
          <mxGeometry x="320" y="30" width="160" height="1170" as="geometry" />
        </mxCell>
        <mxCell id="XAwka69sQL22n_eEZ8dz-77" value="" style="rounded=0;whiteSpace=wrap;html=1;fontFamily=Helvetica;fillColor=#fff2cc;strokeColor=#d6b656;" parent="XAwka69sQL22n_eEZ8dz-103" vertex="1">
          <mxGeometry x="21.384117647058588" y="60" width="120" height="40" as="geometry" />
        </mxCell>
        <mxCell id="ztIG4tBGXhU3RwoBqzTu-5" style="edgeStyle=orthogonalEdgeStyle;rounded=0;orthogonalLoop=1;jettySize=auto;html=1;entryX=0.5;entryY=0;entryDx=0;entryDy=0;" parent="XAwka69sQL22n_eEZ8dz-103" source="XAwka69sQL22n_eEZ8dz-79" target="XAwka69sQL22n_eEZ8dz-81" edge="1">
          <mxGeometry relative="1" as="geometry" />
        </mxCell>
        <mxCell id="XAwka69sQL22n_eEZ8dz-79" value="" style="rounded=0;whiteSpace=wrap;html=1;fontFamily=Helvetica;fillColor=#fff2cc;strokeColor=#d6b656;" parent="XAwka69sQL22n_eEZ8dz-103" vertex="1">
          <mxGeometry x="21.384117647058588" y="300" width="120" height="40" as="geometry" />
        </mxCell>
        <mxCell id="ztIG4tBGXhU3RwoBqzTu-6" style="edgeStyle=orthogonalEdgeStyle;rounded=0;orthogonalLoop=1;jettySize=auto;html=1;entryX=0.5;entryY=0;entryDx=0;entryDy=0;" parent="XAwka69sQL22n_eEZ8dz-103" source="XAwka69sQL22n_eEZ8dz-81" target="XAwka69sQL22n_eEZ8dz-80" edge="1">
          <mxGeometry relative="1" as="geometry" />
        </mxCell>
        <mxCell id="XAwka69sQL22n_eEZ8dz-81" value="" style="rounded=0;whiteSpace=wrap;html=1;fontFamily=Helvetica;fillColor=#fff2cc;strokeColor=#d6b656;" parent="XAwka69sQL22n_eEZ8dz-103" vertex="1">
          <mxGeometry x="21.384117647058588" y="540" width="120" height="40" as="geometry" />
        </mxCell>
        <mxCell id="ztIG4tBGXhU3RwoBqzTu-10" style="edgeStyle=orthogonalEdgeStyle;rounded=0;orthogonalLoop=1;jettySize=auto;html=1;entryX=0.5;entryY=0;entryDx=0;entryDy=0;" parent="XAwka69sQL22n_eEZ8dz-103" source="XAwka69sQL22n_eEZ8dz-80" target="ztIG4tBGXhU3RwoBqzTu-9" edge="1">
          <mxGeometry relative="1" as="geometry" />
        </mxCell>
        <mxCell id="XAwka69sQL22n_eEZ8dz-80" value="" style="rounded=0;whiteSpace=wrap;html=1;fontFamily=Helvetica;fillColor=#fff2cc;strokeColor=#d6b656;" parent="XAwka69sQL22n_eEZ8dz-103" vertex="1">
          <mxGeometry x="21.384117647058606" y="780" width="120" height="40" as="geometry" />
        </mxCell>
        <mxCell id="XAwka69sQL22n_eEZ8dz-76" style="edgeStyle=orthogonalEdgeStyle;rounded=1;orthogonalLoop=1;jettySize=auto;html=1;entryX=0.5;entryY=0;entryDx=0;entryDy=0;fontFamily=Helvetica;" parent="XAwka69sQL22n_eEZ8dz-103" source="XAwka69sQL22n_eEZ8dz-77" target="XAwka69sQL22n_eEZ8dz-79" edge="1">
          <mxGeometry relative="1" as="geometry" />
        </mxCell>
        <mxCell id="ztIG4tBGXhU3RwoBqzTu-11" style="edgeStyle=orthogonalEdgeStyle;rounded=0;orthogonalLoop=1;jettySize=auto;html=1;" parent="XAwka69sQL22n_eEZ8dz-103" source="ztIG4tBGXhU3RwoBqzTu-9" edge="1">
          <mxGeometry relative="1" as="geometry">
            <mxPoint x="81" y="1140" as="targetPoint" />
          </mxGeometry>
        </mxCell>
        <mxCell id="ztIG4tBGXhU3RwoBqzTu-9" value="" style="rounded=0;whiteSpace=wrap;html=1;fontFamily=Helvetica;fillColor=#fff2cc;strokeColor=#d6b656;" parent="XAwka69sQL22n_eEZ8dz-103" vertex="1">
          <mxGeometry x="21.38411764705859" y="1060" width="120" height="40" as="geometry" />
        </mxCell>
        <mxCell id="77e6c97f196da883-6" value="feature/..." style="swimlane;html=1;startSize=30;fillColor=#f5f5f5;strokeColor=#666666;fontColor=#333333;fontSize=17;" parent="77e6c97f196da883-1" vertex="1">
          <mxGeometry x="480" y="30" width="160" height="1170" as="geometry" />
        </mxCell>
        <mxCell id="ztIG4tBGXhU3RwoBqzTu-13" value="pull request" style="edgeLabel;html=1;align=center;verticalAlign=middle;resizable=0;points=[];fontSize=17;" parent="77e6c97f196da883-6" vertex="1" connectable="0">
          <mxGeometry x="79.99999896085637" y="240" as="geometry">
            <mxPoint y="2" as="offset" />
          </mxGeometry>
        </mxCell>
        <mxCell id="ztIG4tBGXhU3RwoBqzTu-17" value="Added (#...): ..." style="rounded=0;whiteSpace=wrap;html=1;fontFamily=Helvetica;fillColor=#f5f5f5;strokeColor=#666666;fontColor=#333333;fontSize=14;" parent="77e6c97f196da883-6" vertex="1">
          <mxGeometry x="30.004117647058592" y="420" width="120" height="40" as="geometry" />
        </mxCell>
        <mxCell id="77e6c97f196da883-5" value="qa/..." style="swimlane;html=1;startSize=30;fillColor=#f5f5f5;strokeColor=#666666;fontColor=#333333;fontSize=17;" parent="77e6c97f196da883-1" vertex="1">
          <mxGeometry x="640" y="30" width="165" height="1170" as="geometry" />
        </mxCell>
        <mxCell id="XAwka69sQL22n_eEZ8dz-93" value="Changed (#...): ..." style="rounded=0;whiteSpace=wrap;html=1;fontFamily=Helvetica;fillColor=#f5f5f5;strokeColor=#666666;fontColor=#333333;fontSize=14;" parent="77e6c97f196da883-5" vertex="1">
          <mxGeometry x="22.504117647058592" y="180" width="120" height="40" as="geometry" />
        </mxCell>
        <mxCell id="77e6c97f196da883-4" value="fix/..." style="swimlane;html=1;startSize=30;fillColor=#f5f5f5;strokeColor=#666666;fontColor=#333333;fontSize=17;" parent="77e6c97f196da883-1" vertex="1">
          <mxGeometry x="805" y="30" width="170" height="1170" as="geometry" />
        </mxCell>
        <mxCell id="XAwka69sQL22n_eEZ8dz-94" value="Fixed (#...): ..." style="rounded=0;whiteSpace=wrap;html=1;fontFamily=Helvetica;fillColor=#f5f5f5;strokeColor=#666666;fontColor=#333333;fontSize=14;" parent="77e6c97f196da883-4" vertex="1">
          <mxGeometry x="25.004117647058592" y="660" width="120" height="40" as="geometry" />
        </mxCell>
        <mxCell id="ztIG4tBGXhU3RwoBqzTu-1" style="edgeStyle=orthogonalEdgeStyle;rounded=1;orthogonalLoop=1;jettySize=auto;html=1;entryX=0.5;entryY=0;entryDx=0;entryDy=0;exitX=0.5;exitY=1;exitDx=0;exitDy=0;" parent="77e6c97f196da883-1" source="XAwka69sQL22n_eEZ8dz-81" target="XAwka69sQL22n_eEZ8dz-94" edge="1">
          <mxGeometry relative="1" as="geometry" />
        </mxCell>
        <mxCell id="XAwka69sQL22n_eEZ8dz-82" style="edgeStyle=orthogonalEdgeStyle;rounded=1;orthogonalLoop=1;jettySize=auto;html=1;exitX=0.5;exitY=1;exitDx=0;exitDy=0;" parent="77e6c97f196da883-1" source="XAwka69sQL22n_eEZ8dz-94" target="XAwka69sQL22n_eEZ8dz-80" edge="1">
          <mxGeometry relative="1" as="geometry" />
        </mxCell>
        <mxCell id="XAwka69sQL22n_eEZ8dz-62" style="edgeStyle=orthogonalEdgeStyle;rounded=1;orthogonalLoop=1;jettySize=auto;html=1;fontFamily=Helvetica;entryX=0.5;entryY=0;entryDx=0;entryDy=0;exitX=0;exitY=0.5;exitDx=0;exitDy=0;fontSize=16;" parent="77e6c97f196da883-1" source="XAwka69sQL22n_eEZ8dz-81" target="XAwka69sQL22n_eEZ8dz-53" edge="1">
          <mxGeometry relative="1" as="geometry">
            <mxPoint x="310" y="620" as="targetPoint" />
            <mxPoint x="500" y="580" as="sourcePoint" />
          </mxGeometry>
        </mxCell>
        <mxCell id="XAwka69sQL22n_eEZ8dz-63" value="fork develop to new release" style="edgeLabel;html=1;align=center;verticalAlign=middle;resizable=0;points=[];fontSize=17;fontFamily=Helvetica;" parent="XAwka69sQL22n_eEZ8dz-62" vertex="1" connectable="0">
          <mxGeometry x="-0.0762" y="1" relative="1" as="geometry">
            <mxPoint x="-1" y="-21" as="offset" />
          </mxGeometry>
        </mxCell>
        <mxCell id="XAwka69sQL22n_eEZ8dz-88" style="edgeStyle=orthogonalEdgeStyle;rounded=1;orthogonalLoop=1;jettySize=auto;html=1;entryX=0.5;entryY=0;entryDx=0;entryDy=0;fontFamily=Helvetica;exitX=0.5;exitY=1;exitDx=0;exitDy=0;fontSize=16;" parent="77e6c97f196da883-1" source="XAwka69sQL22n_eEZ8dz-93" target="XAwka69sQL22n_eEZ8dz-79" edge="1">
          <mxGeometry relative="1" as="geometry" />
        </mxCell>
        <mxCell id="ztIG4tBGXhU3RwoBqzTu-3" style="edgeStyle=orthogonalEdgeStyle;rounded=1;orthogonalLoop=1;jettySize=auto;html=1;entryX=0.5;entryY=0;entryDx=0;entryDy=0;exitX=0.5;exitY=1;exitDx=0;exitDy=0;" parent="77e6c97f196da883-1" source="XAwka69sQL22n_eEZ8dz-77" target="XAwka69sQL22n_eEZ8dz-93" edge="1">
          <mxGeometry relative="1" as="geometry" />
        </mxCell>
        <mxCell id="ztIG4tBGXhU3RwoBqzTu-12" value="fork" style="edgeLabel;html=1;align=center;verticalAlign=middle;resizable=0;points=[];fontSize=17;" parent="ztIG4tBGXhU3RwoBqzTu-3" vertex="1" connectable="0">
          <mxGeometry x="-0.0184" y="-5" relative="1" as="geometry">
            <mxPoint x="2" y="-25" as="offset" />
          </mxGeometry>
        </mxCell>
        <mxCell id="XAwka69sQL22n_eEZ8dz-96" style="edgeStyle=orthogonalEdgeStyle;orthogonalLoop=1;jettySize=auto;html=1;exitX=0.5;exitY=1;exitDx=0;exitDy=0;fontFamily=Helvetica;rounded=1;fontSize=16;entryX=0.5;entryY=0;entryDx=0;entryDy=0;" parent="77e6c97f196da883-1" source="ztIG4tBGXhU3RwoBqzTu-17" target="XAwka69sQL22n_eEZ8dz-81" edge="1">
          <mxGeometry relative="1" as="geometry">
            <mxPoint x="720.0041176470586" y="680" as="targetPoint" />
            <mxPoint x="570.0041176470586" y="520" as="sourcePoint" />
          </mxGeometry>
        </mxCell>
        <mxCell id="ztIG4tBGXhU3RwoBqzTu-7" style="edgeStyle=orthogonalEdgeStyle;rounded=1;orthogonalLoop=1;jettySize=auto;html=1;entryX=0.5;entryY=0;entryDx=0;entryDy=0;" parent="77e6c97f196da883-1" source="XAwka69sQL22n_eEZ8dz-54" target="XAwka69sQL22n_eEZ8dz-61" edge="1">
          <mxGeometry relative="1" as="geometry">
            <Array as="points">
              <mxPoint x="80" y="920" />
              <mxPoint x="230" y="920" />
            </Array>
          </mxGeometry>
        </mxCell>
        <mxCell id="ztIG4tBGXhU3RwoBqzTu-8" style="edgeStyle=orthogonalEdgeStyle;rounded=1;orthogonalLoop=1;jettySize=auto;html=1;" parent="77e6c97f196da883-1" source="XAwka69sQL22n_eEZ8dz-80" target="XAwka69sQL22n_eEZ8dz-61" edge="1">
          <mxGeometry relative="1" as="geometry">
            <Array as="points">
              <mxPoint x="401" y="920" />
              <mxPoint x="230" y="920" />
            </Array>
          </mxGeometry>
        </mxCell>
        <mxCell id="ztIG4tBGXhU3RwoBqzTu-16" value="&lt;font style=&quot;font-size: 17px;&quot;&gt;merge or cherry-pick&lt;/font&gt;" style="edgeLabel;html=1;align=center;verticalAlign=middle;resizable=0;points=[];" parent="ztIG4tBGXhU3RwoBqzTu-8" vertex="1" connectable="0">
          <mxGeometry x="0.2089" y="-1" relative="1" as="geometry">
            <mxPoint x="15" y="-19" as="offset" />
          </mxGeometry>
        </mxCell>
        <mxCell id="XAwka69sQL22n_eEZ8dz-59" style="edgeStyle=orthogonalEdgeStyle;rounded=1;orthogonalLoop=1;jettySize=auto;html=1;entryX=0.5;entryY=0;entryDx=0;entryDy=0;exitX=0.5;exitY=1;exitDx=0;exitDy=0;" parent="77e6c97f196da883-1" source="XAwka69sQL22n_eEZ8dz-61" target="XAwka69sQL22n_eEZ8dz-57" edge="1">
          <mxGeometry relative="1" as="geometry" />
        </mxCell>
        <mxCell id="ztIG4tBGXhU3RwoBqzTu-2" style="edgeStyle=orthogonalEdgeStyle;rounded=1;orthogonalLoop=1;jettySize=auto;html=1;entryX=0.5;entryY=0;entryDx=0;entryDy=0;exitX=0.5;exitY=1;exitDx=0;exitDy=0;" parent="77e6c97f196da883-1" source="XAwka69sQL22n_eEZ8dz-79" target="ztIG4tBGXhU3RwoBqzTu-17" edge="1">
          <mxGeometry relative="1" as="geometry" />
        </mxCell>
        <mxCell id="XAwka69sQL22n_eEZ8dz-60" value="tag x.y.0" style="rounded=0;whiteSpace=wrap;html=1;fontFamily=Helvetica;fillColor=#dae8fc;strokeColor=#6c8ebf;fontSize=14;" parent="1" vertex="1">
          <mxGeometry x="250" y="760" width="120" height="40" as="geometry" />
        </mxCell>
        <mxCell id="XAwka69sQL22n_eEZ8dz-64" style="edgeStyle=orthogonalEdgeStyle;rounded=1;orthogonalLoop=1;jettySize=auto;html=1;entryX=0.5;entryY=0;entryDx=0;entryDy=0;fontFamily=Helvetica;exitX=0.5;exitY=1;exitDx=0;exitDy=0;" parent="1" source="XAwka69sQL22n_eEZ8dz-60" target="XAwka69sQL22n_eEZ8dz-54" edge="1">
          <mxGeometry relative="1" as="geometry" />
        </mxCell>
        <mxCell id="ztIG4tBGXhU3RwoBqzTu-4" style="edgeStyle=orthogonalEdgeStyle;rounded=1;orthogonalLoop=1;jettySize=auto;html=1;entryX=0.5;entryY=0;entryDx=0;entryDy=0;exitX=0.5;exitY=1;exitDx=0;exitDy=0;" parent="1" source="XAwka69sQL22n_eEZ8dz-53" target="XAwka69sQL22n_eEZ8dz-60" edge="1">
          <mxGeometry relative="1" as="geometry" />
        </mxCell>
      </root>
    </mxGraphModel>
  </diagram>
</mxfile>
